<svg xmlns="http://www.w3.org/2000/svg" width="512" height="320" viewBox="0 0 512 320">
  <defs>
    <filter id="softGlow" x="-50%" y="-50%" width="200%" height="200%">
      <feGaussianBlur stdDeviation="4" result="blur"/>
      <feMerge><feMergeNode in="blur"/><feMergeNode in="SourceGraphic"/></feMerge>
    </filter>
    <filter id="paperNoise" x="0" y="0" width="100%" height="100%">
      <feTurbulence type="fractalNoise" baseFrequency="0.032" numOctaves="3" seed="17"/>
      <feColorMatrix type="saturate" values="0"/>
      <feComponentTransfer>
        <feFuncA type="table" tableValues="0 0.11"/>
      </feComponentTransfer>
    </filter>
    <pattern id="rain" width="34" height="40" patternUnits="userSpaceOnUse" patternTransform="rotate(14)">
      <line x1="10" y1="0" x2="10" y2="18" stroke="#B9CBE0" stroke-width="1" opacity="0.22"/>
      <line x1="24" y1="6" x2="24" y2="32" stroke="#00E5FF" stroke-width="0.8" opacity="0.12"/>
    </pattern>
    
  </defs>
  <rect width="512" height="320" fill="transparent"/><g transform="translate(82 82) scale(0.75)">
    <ellipse cx="0" cy="12" rx="58" ry="22" fill="#050508" stroke="#7B838D" stroke-width="3"/>
    <path d="M -54 22 C -84 34, -86 48, -54 42 M -22 28 C -48 52, -42 62, -12 40 M 24 28 C 48 52, 42 62, 12 40 M 54 22 C 84 34, 86 48, 54 42"
      fill="none" stroke="#050508" stroke-width="8" stroke-linecap="round"/>
    <circle cx="34" cy="2" r="5" fill="#00E5FF" filter="url(#softGlow)"/>
    
    
  </g><g transform="translate(210 82) scale(0.75)">
    <ellipse cx="0" cy="12" rx="58" ry="22" fill="#050508" stroke="#00E5FF" stroke-width="3"/>
    <path d="M -54 22 C -84 34, -86 48, -54 42 M -22 28 C -48 52, -42 62, -12 40 M 24 28 C 48 52, 42 62, 12 40 M 54 22 C 84 34, 86 48, 54 42"
      fill="none" stroke="#050508" stroke-width="8" stroke-linecap="round"/>
    <circle cx="34" cy="2" r="5" fill="#00E5FF" filter="url(#softGlow)"/>
    <ellipse cx="42" cy="44" rx="70" ry="14" fill="none" stroke="#00E5FF" stroke-width="4" opacity="0.8"/>
    
  </g><g transform="translate(338 82) scale(0.75)">
    <ellipse cx="0" cy="12" rx="58" ry="22" fill="#050508" stroke="#FF2E7A" stroke-width="3"/>
    <path d="M -54 22 C -84 34, -86 48, -54 42 M -22 28 C -48 52, -42 62, -12 40 M 24 28 C 48 52, 42 62, 12 40 M 54 22 C 84 34, 86 48, 54 42"
      fill="none" stroke="#050508" stroke-width="8" stroke-linecap="round"/>
    <circle cx="34" cy="2" r="5" fill="#00E5FF" filter="url(#softGlow)"/>
    
    <g transform="translate(20 12) scale(0.36)" opacity="0.95">
    <path d="M -10 32 C 46 -42, 142 -48, 202 -8 C 128 -22, 72 6, 14 58 Z" fill="#050508" opacity="0.95"/>
    <path d="M 9 25 C 58 -24, 126 -29, 182 -5 C 116 -7, 70 13, 21 48 Z" fill="#FF2E7A" filter="url(#softGlow)"/>
    <path d="M 122 -18 l12 -10 l-3 14 l14 4 l-15 3 l-6 14 l-4 -14 l-16 -3 Z" fill="#00E5FF"/>
    <path d="M 154 17 l10 -6 l-3 10 l9 4 l-11 1 l-5 9 l-2 -10 l-10 -4 Z" fill="#FF2E7A"/>
  </g>
  </g><g transform="translate(466 82) scale(0.75)">
    <ellipse cx="0" cy="12" rx="58" ry="22" fill="#050508" stroke="#7B838D" stroke-width="3"/>
    <path d="M -54 22 C -84 34, -86 48, -54 42 M -22 28 C -48 52, -42 62, -12 40 M 24 28 C 48 52, 42 62, 12 40 M 54 22 C 84 34, 86 48, 54 42"
      fill="none" stroke="#050508" stroke-width="8" stroke-linecap="round"/>
    <circle cx="34" cy="2" r="5" fill="#00E5FF" filter="url(#softGlow)"/>
    
    
  </g><g transform="translate(82 220) scale(0.72)">
    <path d="M -72 0 C -22 -56, 42 -56, 88 -6 C 34 -18, -8 8, -58 42 Z" fill="#050508" stroke="#00E5FF" stroke-width="4"/>
    <path d="M -16 -22 L 8 -52 L 32 -20 L 10 28 Z" fill="#162435" stroke="#FF2E7A" stroke-width="3"/>
    <path d="M 34 -8 C 72 0, 92 18, 108 46" fill="none" stroke="#00E5FF" stroke-width="5" stroke-linecap="round" opacity="0.74"/>
    <circle cx="12" cy="-18" r="4" fill="#FF2E7A" filter="url(#softGlow)"/>
  </g><g transform="translate(210 228) scale(0.72)">
    <path d="M -72 0 C -22 -56, 42 -56, 88 -6 C 34 -18, -8 8, -58 42 Z" fill="#050508" stroke="#00E5FF" stroke-width="4"/>
    <path d="M -16 -22 L 8 -52 L 32 -20 L 10 28 Z" fill="#162435" stroke="#FF2E7A" stroke-width="3"/>
    <path d="M 34 -8 C 72 0, 92 18, 108 46" fill="none" stroke="#00E5FF" stroke-width="5" stroke-linecap="round" opacity="0.74"/>
    <circle cx="12" cy="-18" r="4" fill="#FF2E7A" filter="url(#softGlow)"/>
  </g><g transform="translate(338 220) scale(0.72)">
    <path d="M -72 0 C -22 -56, 42 -56, 88 -6 C 34 -18, -8 8, -58 42 Z" fill="#050508" stroke="#00E5FF" stroke-width="4"/>
    <path d="M -16 -22 L 8 -52 L 32 -20 L 10 28 Z" fill="#162435" stroke="#FF2E7A" stroke-width="3"/>
    <path d="M 34 -8 C 72 0, 92 18, 108 46" fill="none" stroke="#00E5FF" stroke-width="5" stroke-linecap="round" opacity="0.74"/>
    <circle cx="12" cy="-18" r="4" fill="#FF2E7A" filter="url(#softGlow)"/>
  </g><g transform="translate(466 228) scale(0.72)">
    <path d="M -72 0 C -22 -56, 42 -56, 88 -6 C 34 -18, -8 8, -58 42 Z" fill="#050508" stroke="#00E5FF" stroke-width="4"/>
    <path d="M -16 -22 L 8 -52 L 32 -20 L 10 28 Z" fill="#162435" stroke="#FF2E7A" stroke-width="3"/>
    <path d="M 34 -8 C 72 0, 92 18, 108 46" fill="none" stroke="#00E5FF" stroke-width="5" stroke-linecap="round" opacity="0.74"/>
    <circle cx="12" cy="-18" r="4" fill="#FF2E7A" filter="url(#softGlow)"/>
  </g>
</svg>