<svg xmlns="http://www.w3.org/2000/svg" width="960" height="540" viewBox="0 0 960 540">
  <defs>
    <filter id="softGlow" x="-50%" y="-50%" width="200%" height="200%">
      <feGaussianBlur stdDeviation="4" result="blur"/>
      <feMerge><feMergeNode in="blur"/><feMergeNode in="SourceGraphic"/></feMerge>
    </filter>
    <filter id="paperNoise" x="0" y="0" width="100%" height="100%">
      <feTurbulence type="fractalNoise" baseFrequency="0.032" numOctaves="3" seed="17"/>
      <feColorMatrix type="saturate" values="0"/>
      <feComponentTransfer>
        <feFuncA type="table" tableValues="0 0.11"/>
      </feComponentTransfer>
    </filter>
    <pattern id="rain" width="34" height="40" patternUnits="userSpaceOnUse" patternTransform="rotate(14)">
      <line x1="10" y1="0" x2="10" y2="18" stroke="#B9CBE0" stroke-width="1" opacity="0.22"/>
      <line x1="24" y1="6" x2="24" y2="32" stroke="#00E5FF" stroke-width="0.8" opacity="0.12"/>
    </pattern>
    
  </defs>
  <rect width="960" height="540" fill="#0B1020"/>
  <radialGradient id="skyGlow" cx="46%" cy="20%" r="70%">
    <stop offset="0%" stop-color="#00E5FF" stop-opacity="0.20"/>
    <stop offset="42%" stop-color="#162435" stop-opacity="0.40"/>
    <stop offset="100%" stop-color="#050508" stop-opacity="1"/>
  </radialGradient>
  <rect width="960" height="540" fill="url(#skyGlow)"/>
  <rect width="960" height="540" fill="url(#rain)" opacity="0.34"/>
  <rect width="960" height="540" filter="url(#paperNoise)" opacity="0.38"/>
    <g><path d="M -150 250 L -98 220 L -28 250 Z" fill="#B9CBE0" opacity="0.18"/>
      <rect x="-122" y="248" width="64" height="42" fill="#B9CBE0" opacity="0.1296"/><path d="M -20 250 L 32 212 L 102 250 Z" fill="#B9CBE0" opacity="0.18"/>
      <rect x="8" y="248" width="64" height="42" fill="#B9CBE0" opacity="0.1296"/><path d="M 110 250 L 162 204 L 232 250 Z" fill="#B9CBE0" opacity="0.18"/>
      <rect x="138" y="248" width="64" height="42" fill="#B9CBE0" opacity="0.1296"/><path d="M 240 250 L 292 220 L 362 250 Z" fill="#B9CBE0" opacity="0.18"/>
      <rect x="268" y="248" width="64" height="42" fill="#B9CBE0" opacity="0.1296"/><path d="M 370 250 L 422 212 L 492 250 Z" fill="#B9CBE0" opacity="0.18"/>
      <rect x="398" y="248" width="64" height="42" fill="#B9CBE0" opacity="0.1296"/><path d="M 500 250 L 552 204 L 622 250 Z" fill="#B9CBE0" opacity="0.18"/>
      <rect x="528" y="248" width="64" height="42" fill="#B9CBE0" opacity="0.1296"/><path d="M 630 250 L 682 220 L 752 250 Z" fill="#B9CBE0" opacity="0.18"/>
      <rect x="658" y="248" width="64" height="42" fill="#B9CBE0" opacity="0.1296"/><path d="M 760 250 L 812 212 L 882 250 Z" fill="#B9CBE0" opacity="0.18"/>
      <rect x="788" y="248" width="64" height="42" fill="#B9CBE0" opacity="0.1296"/><path d="M 890 250 L 942 204 L 1012 250 Z" fill="#B9CBE0" opacity="0.18"/>
      <rect x="918" y="248" width="64" height="42" fill="#B9CBE0" opacity="0.1296"/><path d="M 1020 250 L 1072 220 L 1142 250 Z" fill="#B9CBE0" opacity="0.18"/>
      <rect x="1048" y="248" width="64" height="42" fill="#B9CBE0" opacity="0.1296"/><path d="M 1150 250 L 1202 212 L 1272 250 Z" fill="#B9CBE0" opacity="0.18"/>
      <rect x="1178" y="248" width="64" height="42" fill="#B9CBE0" opacity="0.1296"/><path d="M 1280 250 L 1332 204 L 1402 250 Z" fill="#B9CBE0" opacity="0.18"/>
      <rect x="1308" y="248" width="64" height="42" fill="#B9CBE0" opacity="0.1296"/><path d="M 1410 250 L 1462 220 L 1532 250 Z" fill="#B9CBE0" opacity="0.18"/>
      <rect x="1438" y="248" width="64" height="42" fill="#B9CBE0" opacity="0.1296"/><path d="M 1540 250 L 1592 212 L 1662 250 Z" fill="#B9CBE0" opacity="0.18"/>
      <rect x="1568" y="248" width="64" height="42" fill="#B9CBE0" opacity="0.1296"/><path d="M 1670 250 L 1722 204 L 1792 250 Z" fill="#B9CBE0" opacity="0.18"/>
      <rect x="1698" y="248" width="64" height="42" fill="#B9CBE0" opacity="0.1296"/><path d="M 1800 250 L 1852 220 L 1922 250 Z" fill="#B9CBE0" opacity="0.18"/>
      <rect x="1828" y="248" width="64" height="42" fill="#B9CBE0" opacity="0.1296"/></g>
    <g><path d="M -100 310 L -48 280 L 22 310 Z" fill="#162435" opacity="0.36"/>
      <rect x="-72" y="308" width="64" height="42" fill="#162435" opacity="0.2592"/><path d="M 30 310 L 82 272 L 152 310 Z" fill="#162435" opacity="0.36"/>
      <rect x="58" y="308" width="64" height="42" fill="#162435" opacity="0.2592"/><path d="M 160 310 L 212 264 L 282 310 Z" fill="#162435" opacity="0.36"/>
      <rect x="188" y="308" width="64" height="42" fill="#162435" opacity="0.2592"/><path d="M 290 310 L 342 280 L 412 310 Z" fill="#162435" opacity="0.36"/>
      <rect x="318" y="308" width="64" height="42" fill="#162435" opacity="0.2592"/><path d="M 420 310 L 472 272 L 542 310 Z" fill="#162435" opacity="0.36"/>
      <rect x="448" y="308" width="64" height="42" fill="#162435" opacity="0.2592"/><path d="M 550 310 L 602 264 L 672 310 Z" fill="#162435" opacity="0.36"/>
      <rect x="578" y="308" width="64" height="42" fill="#162435" opacity="0.2592"/><path d="M 680 310 L 732 280 L 802 310 Z" fill="#162435" opacity="0.36"/>
      <rect x="708" y="308" width="64" height="42" fill="#162435" opacity="0.2592"/><path d="M 810 310 L 862 272 L 932 310 Z" fill="#162435" opacity="0.36"/>
      <rect x="838" y="308" width="64" height="42" fill="#162435" opacity="0.2592"/><path d="M 940 310 L 992 264 L 1062 310 Z" fill="#162435" opacity="0.36"/>
      <rect x="968" y="308" width="64" height="42" fill="#162435" opacity="0.2592"/><path d="M 1070 310 L 1122 280 L 1192 310 Z" fill="#162435" opacity="0.36"/>
      <rect x="1098" y="308" width="64" height="42" fill="#162435" opacity="0.2592"/><path d="M 1200 310 L 1252 272 L 1322 310 Z" fill="#162435" opacity="0.36"/>
      <rect x="1228" y="308" width="64" height="42" fill="#162435" opacity="0.2592"/><path d="M 1330 310 L 1382 264 L 1452 310 Z" fill="#162435" opacity="0.36"/>
      <rect x="1358" y="308" width="64" height="42" fill="#162435" opacity="0.2592"/><path d="M 1460 310 L 1512 280 L 1582 310 Z" fill="#162435" opacity="0.36"/>
      <rect x="1488" y="308" width="64" height="42" fill="#162435" opacity="0.2592"/><path d="M 1590 310 L 1642 272 L 1712 310 Z" fill="#162435" opacity="0.36"/>
      <rect x="1618" y="308" width="64" height="42" fill="#162435" opacity="0.2592"/><path d="M 1720 310 L 1772 264 L 1842 310 Z" fill="#162435" opacity="0.36"/>
      <rect x="1748" y="308" width="64" height="42" fill="#162435" opacity="0.2592"/><path d="M 1850 310 L 1902 280 L 1972 310 Z" fill="#162435" opacity="0.36"/>
      <rect x="1878" y="308" width="64" height="42" fill="#162435" opacity="0.2592"/></g>
    <g transform="translate(490 350) scale(0.98)">
    <circle cx="0" cy="-116" r="78" fill="#B9CBE0" opacity="0.68"/>
    <path d="M -118 80 C -114 -118, 110 -118, 118 80" fill="none" stroke="#050508" stroke-width="30"/>
    <path d="M -118 80 C -114 -118, 110 -118, 118 80" fill="none" stroke="#E8DDC6" stroke-width="4" opacity="0.52"/>
    <path d="M -148 80 H 148" stroke="#050508" stroke-width="28"/>
    <path d="M -142 70 H 142" stroke="#F0A64A" stroke-width="3" opacity="0.55"/>
  </g>
    <g transform="translate(82 98)">
    <path d="M 8 2
    C 32 -4, 52 4, 74 2
    L 80 146
    C 40 159, 40 152, 7 155
    L 2 8 Z"
    fill="#0A0C12" stroke="#00E5FF" stroke-width="3" opacity="0.96"/>
    <rect x="9" y="8" width="64" height="138" fill="none" stroke="#00E5FF" stroke-width="2" opacity="0.85" filter="url(#softGlow)"/>
    <path d="M 27.880000000000003 43.120000000000005 L 52.480000000000004 43.120000000000005 L 42.64 110.88 L 22.96 110.88 Z"
      fill="none" stroke="#00E5FF" stroke-width="4" opacity="0.78"/>
    <text x="41" y="144" text-anchor="middle" font-family="Arial, sans-serif" font-size="10" fill="#E8DDC6" opacity="0.72">utility</text>
  </g><g transform="translate(216 166)">
    <path d="M 8 2
    C 32 -4, 88 4, 110 2
    L 116 60
    C 76 73, 40 66, 7 69
    L 2 8 Z"
    fill="#0A0C12" stroke="#FF2E7A" stroke-width="3" opacity="0.96"/>
    <rect x="9" y="8" width="100" height="52" fill="none" stroke="#FF2E7A" stroke-width="2" opacity="0.85" filter="url(#softGlow)"/>
    <path d="M 40.120000000000005 19.040000000000003 L 75.52 19.040000000000003 L 61.36 48.96 L 33.040000000000006 48.96 Z"
      fill="none" stroke="#FF2E7A" stroke-width="4" opacity="0.78"/>
    <text x="59" y="58" text-anchor="middle" font-family="Arial, sans-serif" font-size="10" fill="#E8DDC6" opacity="0.72">action</text>
  </g><g transform="translate(706 102)">
    <path d="M 8 2
    C 32 -4, 58 4, 80 2
    L 86 152
    C 46 165, 40 158, 7 161
    L 2 8 Z"
    fill="#0A0C12" stroke="#F0A64A" stroke-width="3" opacity="0.96"/>
    <rect x="9" y="8" width="70" height="144" fill="none" stroke="#F0A64A" stroke-width="2" opacity="0.85" filter="url(#softGlow)"/>
    <path d="M 29.92 44.800000000000004 L 56.32 44.800000000000004 L 45.760000000000005 115.19999999999999 L 24.64 115.19999999999999 Z"
      fill="none" stroke="#F0A64A" stroke-width="4" opacity="0.78"/>
    <text x="44" y="150" text-anchor="middle" font-family="Arial, sans-serif" font-size="10" fill="#E8DDC6" opacity="0.72">safe</text>
  </g><g transform="translate(824 228)">
    <path d="M 8 2
    C 32 -4, 48 4, 70 2
    L 76 54
    C 36 67, 40 60, 7 63
    L 2 8 Z"
    fill="#0A0C12" stroke="#00E5FF" stroke-width="3" opacity="0.96"/>
    <rect x="9" y="8" width="60" height="46" fill="none" stroke="#00E5FF" stroke-width="2" opacity="0.85" filter="url(#softGlow)"/>
    <path d="M 26.520000000000003 17.360000000000003 L 49.92 17.360000000000003 L 40.56 44.64 L 21.840000000000003 44.64 Z"
      fill="none" stroke="#00E5FF" stroke-width="4" opacity="0.78"/>
    <text x="39" y="52" text-anchor="middle" font-family="Arial, sans-serif" font-size="10" fill="#E8DDC6" opacity="0.72">focus</text>
  </g>
    <path d="M 0 382 C 142 370, 266 402, 416 388 C 570 374, 690 390, 960 374 L 960 540 L 0 540 Z" fill="#15171A"/>
    <path d="M 0 382 C 142 370, 266 402, 416 388 C 570 374, 690 390, 960 374" fill="none" stroke="#E8DDC6" stroke-width="3" opacity="0.45"/>
    <path d="M 40 420 C 190 438, 370 430, 560 416" stroke="#00E5FF" stroke-width="3" opacity="0.22"/>
    <path d="M 620 420 C 760 432, 848 420, 940 410" stroke="#FF2E7A" stroke-width="3" opacity="0.20"/>
    <g transform="translate(286 372) scale(1)">
    <path d="M -96 -50 C -58 -62, -42 -43, -18 -36 C -36 -31, -56 -25, -96 -16 C -44 -18, -30 -11, -12 -20 L 0 -32 Z"
      fill="#FF2E7A" opacity="0.92"/>
    <ellipse cx="10" cy="-54" rx="15" ry="18" fill="#050508" stroke="#7B838D" stroke-width="2"/>
    <circle cx="18" cy="-57" r="3.8" fill="#00E5FF" filter="url(#softGlow)"/>
    <path d="M -4 -42 C -14 -18, -8 6, 3 30 L 28 30 C 34 4, 28 -22, 18 -42 Z"
      fill="#050508" stroke="#7B838D" stroke-width="2"/>
    <path d="M 1 -18 L -18 14 L -7 18 L 9 -10 Z" fill="#050508" stroke="#7B838D" stroke-width="1.5"/>
    <path d="M 20 -14 L 44 6 L 38 13 L 16 0 Z" fill="#050508" stroke="#7B838D" stroke-width="1.5"/>
    <path d="M 1 28 L -12 66 L 4 66 L 14 30 Z" fill="#050508" stroke="#7B838D" stroke-width="1.5"/>
    <path d="M 22 29 L 33 66 L 48 66 L 34 29 Z" fill="#050508" stroke="#7B838D" stroke-width="1.5"/>
    <rect x="28" y="-6" width="18" height="24" rx="3" fill="#050508" stroke="#00E5FF" stroke-width="2"/>
    <path d="M 32 5 l5 -6 l6 6 l-6 6 Z" fill="none" stroke="#00E5FF" stroke-width="2"/>
  </g>
    <g transform="translate(620 364) scale(0.82)">
    <ellipse cx="0" cy="12" rx="58" ry="22" fill="#050508" stroke="#00E5FF" stroke-width="3"/>
    <path d="M -54 22 C -84 34, -86 48, -54 42 M -22 28 C -48 52, -42 62, -12 40 M 24 28 C 48 52, 42 62, 12 40 M 54 22 C 84 34, 86 48, 54 42"
      fill="none" stroke="#050508" stroke-width="8" stroke-linecap="round"/>
    <circle cx="34" cy="2" r="5" fill="#00E5FF" filter="url(#softGlow)"/>
    <ellipse cx="42" cy="44" rx="70" ry="14" fill="none" stroke="#00E5FF" stroke-width="4" opacity="0.8"/>
    
  </g>
    <g transform="translate(770 332) scale(0.72)">
    <path d="M -34 84 C -54 18, -42 -64, 0 -92 C 44 -60, 55 16, 34 84 Z" fill="#050508" stroke="#00E5FF" stroke-width="4"/>
    <path d="M -18 -54 C -6 -72, 6 -72, 18 -54 L 34 18 C 4 28, -4 28, -34 18 Z" fill="#F0A64A" opacity="0.76"/>
    <path d="M -70 18 C -44 0, -28 -6, -8 10 M 70 18 C 44 0, 28 -6, 8 10" stroke="#050508" stroke-width="10" stroke-linecap="round"/>
    <ellipse cx="0" cy="110" rx="92" ry="18" fill="none" stroke="#FF2E7A" stroke-width="5" filter="url(#softGlow)"/>
    
  </g>
    
  
</svg>