<svg xmlns="http://www.w3.org/2000/svg" width="1920" height="540" viewBox="0 0 1920 540">
  <defs>
    <filter id="softGlow" x="-50%" y="-50%" width="200%" height="200%">
      <feGaussianBlur stdDeviation="4" result="blur"/>
      <feMerge><feMergeNode in="blur"/><feMergeNode in="SourceGraphic"/></feMerge>
    </filter>
    <filter id="paperNoise" x="0" y="0" width="100%" height="100%">
      <feTurbulence type="fractalNoise" baseFrequency="0.032" numOctaves="3" seed="17"/>
      <feColorMatrix type="saturate" values="0"/>
      <feComponentTransfer>
        <feFuncA type="table" tableValues="0 0.11"/>
      </feComponentTransfer>
    </filter>
    <pattern id="rain" width="34" height="40" patternUnits="userSpaceOnUse" patternTransform="rotate(14)">
      <line x1="10" y1="0" x2="10" y2="18" stroke="#B9CBE0" stroke-width="1" opacity="0.22"/>
      <line x1="24" y1="6" x2="24" y2="32" stroke="#00E5FF" stroke-width="0.8" opacity="0.12"/>
    </pattern>
    
  </defs>
  <rect width="1920" height="540" fill="transparent"/><g><path d="M -60 328 L -8 298 L 62 328 Z" fill="#172338" opacity="0.4"/>
      <rect x="-32" y="326" width="64" height="42" fill="#172338" opacity="0.288"/><path d="M 70 328 L 122 290 L 192 328 Z" fill="#172338" opacity="0.4"/>
      <rect x="98" y="326" width="64" height="42" fill="#172338" opacity="0.288"/><path d="M 200 328 L 252 282 L 322 328 Z" fill="#172338" opacity="0.4"/>
      <rect x="228" y="326" width="64" height="42" fill="#172338" opacity="0.288"/><path d="M 330 328 L 382 298 L 452 328 Z" fill="#172338" opacity="0.4"/>
      <rect x="358" y="326" width="64" height="42" fill="#172338" opacity="0.288"/><path d="M 460 328 L 512 290 L 582 328 Z" fill="#172338" opacity="0.4"/>
      <rect x="488" y="326" width="64" height="42" fill="#172338" opacity="0.288"/><path d="M 590 328 L 642 282 L 712 328 Z" fill="#172338" opacity="0.4"/>
      <rect x="618" y="326" width="64" height="42" fill="#172338" opacity="0.288"/><path d="M 720 328 L 772 298 L 842 328 Z" fill="#172338" opacity="0.4"/>
      <rect x="748" y="326" width="64" height="42" fill="#172338" opacity="0.288"/><path d="M 850 328 L 902 290 L 972 328 Z" fill="#172338" opacity="0.4"/>
      <rect x="878" y="326" width="64" height="42" fill="#172338" opacity="0.288"/><path d="M 980 328 L 1032 282 L 1102 328 Z" fill="#172338" opacity="0.4"/>
      <rect x="1008" y="326" width="64" height="42" fill="#172338" opacity="0.288"/><path d="M 1110 328 L 1162 298 L 1232 328 Z" fill="#172338" opacity="0.4"/>
      <rect x="1138" y="326" width="64" height="42" fill="#172338" opacity="0.288"/><path d="M 1240 328 L 1292 290 L 1362 328 Z" fill="#172338" opacity="0.4"/>
      <rect x="1268" y="326" width="64" height="42" fill="#172338" opacity="0.288"/><path d="M 1370 328 L 1422 282 L 1492 328 Z" fill="#172338" opacity="0.4"/>
      <rect x="1398" y="326" width="64" height="42" fill="#172338" opacity="0.288"/><path d="M 1500 328 L 1552 298 L 1622 328 Z" fill="#172338" opacity="0.4"/>
      <rect x="1528" y="326" width="64" height="42" fill="#172338" opacity="0.288"/><path d="M 1630 328 L 1682 290 L 1752 328 Z" fill="#172338" opacity="0.4"/>
      <rect x="1658" y="326" width="64" height="42" fill="#172338" opacity="0.288"/><path d="M 1760 328 L 1812 282 L 1882 328 Z" fill="#172338" opacity="0.4"/>
      <rect x="1788" y="326" width="64" height="42" fill="#172338" opacity="0.288"/><path d="M 1890 328 L 1942 298 L 2012 328 Z" fill="#172338" opacity="0.4"/>
      <rect x="1918" y="326" width="64" height="42" fill="#172338" opacity="0.288"/></g>
      <g transform="translate(420 150)">
    <path d="M 8 2
    C 32 -4, 62 4, 84 2
    L 90 130
    C 50 143, 40 136, 7 139
    L 2 8 Z"
    fill="#0A0C12" stroke="#00E5FF" stroke-width="3" opacity="0.96"/>
    <rect x="9" y="8" width="74" height="122" fill="none" stroke="#00E5FF" stroke-width="2" opacity="0.85" filter="url(#softGlow)"/>
    <path d="M 31.28 38.64 L 58.88 38.64 L 47.84 99.36 L 25.76 99.36 Z"
      fill="none" stroke="#00E5FF" stroke-width="4" opacity="0.78"/>
    <text x="46" y="128" text-anchor="middle" font-family="Arial, sans-serif" font-size="10" fill="#E8DDC6" opacity="0.72">mid-r</text>
  </g><g transform="translate(1160 200)">
    <path d="M 8 2
    C 32 -4, 82 4, 104 2
    L 110 62
    C 70 75, 40 68, 7 71
    L 2 8 Z"
    fill="#0A0C12" stroke="#F0A64A" stroke-width="3" opacity="0.96"/>
    <rect x="9" y="8" width="94" height="54" fill="none" stroke="#F0A64A" stroke-width="2" opacity="0.85" filter="url(#softGlow)"/>
    <path d="M 38.080000000000005 19.6 L 71.68 19.6 L 58.24 50.4 L 31.360000000000003 50.4 Z"
      fill="none" stroke="#F0A64A" stroke-width="4" opacity="0.78"/>
    <text x="56" y="60" text-anchor="middle" font-family="Arial, sans-serif" font-size="10" fill="#E8DDC6" opacity="0.72">safe</text>
  </g>
      
      
</svg>