<svg xmlns="http://www.w3.org/2000/svg" width="1920" height="540" viewBox="0 0 1920 540">
  <defs>
    <filter id="softGlow" x="-50%" y="-50%" width="200%" height="200%">
      <feGaussianBlur stdDeviation="4" result="blur"/>
      <feMerge><feMergeNode in="blur"/><feMergeNode in="SourceGraphic"/></feMerge>
    </filter>
    <filter id="paperNoise" x="0" y="0" width="100%" height="100%">
      <feTurbulence type="fractalNoise" baseFrequency="0.032" numOctaves="3" seed="17"/>
      <feColorMatrix type="saturate" values="0"/>
      <feComponentTransfer>
        <feFuncA type="table" tableValues="0 0.11"/>
      </feComponentTransfer>
    </filter>
    <pattern id="rain" width="34" height="40" patternUnits="userSpaceOnUse" patternTransform="rotate(14)">
      <line x1="10" y1="0" x2="10" y2="18" stroke="#B9CBE0" stroke-width="1" opacity="0.22"/>
      <line x1="24" y1="6" x2="24" y2="32" stroke="#00E5FF" stroke-width="0.8" opacity="0.12"/>
    </pattern>
    
  </defs>
  <rect width="1920" height="540" fill="transparent"/><g><path d="M 30 400 L 82 370 L 152 400 Z" fill="#090C12" opacity="0.7"/>
      <rect x="58" y="398" width="64" height="42" fill="#090C12" opacity="0.504"/><path d="M 160 400 L 212 362 L 282 400 Z" fill="#090C12" opacity="0.7"/>
      <rect x="188" y="398" width="64" height="42" fill="#090C12" opacity="0.504"/><path d="M 290 400 L 342 354 L 412 400 Z" fill="#090C12" opacity="0.7"/>
      <rect x="318" y="398" width="64" height="42" fill="#090C12" opacity="0.504"/><path d="M 420 400 L 472 370 L 542 400 Z" fill="#090C12" opacity="0.7"/>
      <rect x="448" y="398" width="64" height="42" fill="#090C12" opacity="0.504"/><path d="M 550 400 L 602 362 L 672 400 Z" fill="#090C12" opacity="0.7"/>
      <rect x="578" y="398" width="64" height="42" fill="#090C12" opacity="0.504"/><path d="M 680 400 L 732 354 L 802 400 Z" fill="#090C12" opacity="0.7"/>
      <rect x="708" y="398" width="64" height="42" fill="#090C12" opacity="0.504"/><path d="M 810 400 L 862 370 L 932 400 Z" fill="#090C12" opacity="0.7"/>
      <rect x="838" y="398" width="64" height="42" fill="#090C12" opacity="0.504"/><path d="M 940 400 L 992 362 L 1062 400 Z" fill="#090C12" opacity="0.7"/>
      <rect x="968" y="398" width="64" height="42" fill="#090C12" opacity="0.504"/><path d="M 1070 400 L 1122 354 L 1192 400 Z" fill="#090C12" opacity="0.7"/>
      <rect x="1098" y="398" width="64" height="42" fill="#090C12" opacity="0.504"/><path d="M 1200 400 L 1252 370 L 1322 400 Z" fill="#090C12" opacity="0.7"/>
      <rect x="1228" y="398" width="64" height="42" fill="#090C12" opacity="0.504"/><path d="M 1330 400 L 1382 362 L 1452 400 Z" fill="#090C12" opacity="0.7"/>
      <rect x="1358" y="398" width="64" height="42" fill="#090C12" opacity="0.504"/><path d="M 1460 400 L 1512 354 L 1582 400 Z" fill="#090C12" opacity="0.7"/>
      <rect x="1488" y="398" width="64" height="42" fill="#090C12" opacity="0.504"/><path d="M 1590 400 L 1642 370 L 1712 400 Z" fill="#090C12" opacity="0.7"/>
      <rect x="1618" y="398" width="64" height="42" fill="#090C12" opacity="0.504"/><path d="M 1720 400 L 1772 362 L 1842 400 Z" fill="#090C12" opacity="0.7"/>
      <rect x="1748" y="398" width="64" height="42" fill="#090C12" opacity="0.504"/><path d="M 1850 400 L 1902 354 L 1972 400 Z" fill="#090C12" opacity="0.7"/>
      <rect x="1878" y="398" width="64" height="42" fill="#090C12" opacity="0.504"/><path d="M 1980 400 L 2032 370 L 2102 400 Z" fill="#090C12" opacity="0.7"/>
      <rect x="2008" y="398" width="64" height="42" fill="#090C12" opacity="0.504"/></g>
      <g transform="translate(540 150)">
    <path d="M 8 2
    C 32 -4, 62 4, 84 2
    L 90 130
    C 50 143, 40 136, 7 139
    L 2 8 Z"
    fill="#0A0C12" stroke="#FF2E7A" stroke-width="3" opacity="0.96"/>
    <rect x="9" y="8" width="74" height="122" fill="none" stroke="#FF2E7A" stroke-width="2" opacity="0.85" filter="url(#softGlow)"/>
    <path d="M 31.28 38.64 L 58.88 38.64 L 47.84 99.36 L 25.76 99.36 Z"
      fill="none" stroke="#FF2E7A" stroke-width="4" opacity="0.78"/>
    <text x="46" y="128" text-anchor="middle" font-family="Arial, sans-serif" font-size="10" fill="#E8DDC6" opacity="0.72">near-</text>
  </g><g transform="translate(1070 200)">
    <path d="M 8 2
    C 32 -4, 82 4, 104 2
    L 110 62
    C 70 75, 40 68, 7 71
    L 2 8 Z"
    fill="#0A0C12" stroke="#F0A64A" stroke-width="3" opacity="0.96"/>
    <rect x="9" y="8" width="94" height="54" fill="none" stroke="#F0A64A" stroke-width="2" opacity="0.85" filter="url(#softGlow)"/>
    <path d="M 38.080000000000005 19.6 L 71.68 19.6 L 58.24 50.4 L 31.360000000000003 50.4 Z"
      fill="none" stroke="#F0A64A" stroke-width="4" opacity="0.78"/>
    <text x="56" y="60" text-anchor="middle" font-family="Arial, sans-serif" font-size="10" fill="#E8DDC6" opacity="0.72">safe</text>
  </g>
      
      <path d="M 0 420 C 180 390, 400 430, 600 404 C 860 376, 1120 438, 1920 396" fill="none" stroke="#050508" stroke-width="26" opacity="0.8"/>
</svg>