<svg xmlns="http://www.w3.org/2000/svg" width="1920" height="540" viewBox="0 0 1920 540">
  <defs>
    <filter id="softGlow" x="-50%" y="-50%" width="200%" height="200%">
      <feGaussianBlur stdDeviation="4" result="blur"/>
      <feMerge><feMergeNode in="blur"/><feMergeNode in="SourceGraphic"/></feMerge>
    </filter>
    <filter id="paperNoise" x="0" y="0" width="100%" height="100%">
      <feTurbulence type="fractalNoise" baseFrequency="0.032" numOctaves="3" seed="17"/>
      <feColorMatrix type="saturate" values="0"/>
      <feComponentTransfer>
        <feFuncA type="table" tableValues="0 0.11"/>
      </feComponentTransfer>
    </filter>
    <pattern id="rain" width="34" height="40" patternUnits="userSpaceOnUse" patternTransform="rotate(14)">
      <line x1="10" y1="0" x2="10" y2="18" stroke="#B9CBE0" stroke-width="1" opacity="0.22"/>
      <line x1="24" y1="6" x2="24" y2="32" stroke="#00E5FF" stroke-width="0.8" opacity="0.12"/>
    </pattern>
    
  </defs>
  <rect width="1920" height="540" fill="transparent"/><g><path d="M 0 376 L 52 346 L 122 376 Z" fill="#101219" opacity="0.6000000000000001"/>
      <rect x="28" y="374" width="64" height="42" fill="#101219" opacity="0.43200000000000005"/><path d="M 130 376 L 182 338 L 252 376 Z" fill="#101219" opacity="0.6000000000000001"/>
      <rect x="158" y="374" width="64" height="42" fill="#101219" opacity="0.43200000000000005"/><path d="M 260 376 L 312 330 L 382 376 Z" fill="#101219" opacity="0.6000000000000001"/>
      <rect x="288" y="374" width="64" height="42" fill="#101219" opacity="0.43200000000000005"/><path d="M 390 376 L 442 346 L 512 376 Z" fill="#101219" opacity="0.6000000000000001"/>
      <rect x="418" y="374" width="64" height="42" fill="#101219" opacity="0.43200000000000005"/><path d="M 520 376 L 572 338 L 642 376 Z" fill="#101219" opacity="0.6000000000000001"/>
      <rect x="548" y="374" width="64" height="42" fill="#101219" opacity="0.43200000000000005"/><path d="M 650 376 L 702 330 L 772 376 Z" fill="#101219" opacity="0.6000000000000001"/>
      <rect x="678" y="374" width="64" height="42" fill="#101219" opacity="0.43200000000000005"/><path d="M 780 376 L 832 346 L 902 376 Z" fill="#101219" opacity="0.6000000000000001"/>
      <rect x="808" y="374" width="64" height="42" fill="#101219" opacity="0.43200000000000005"/><path d="M 910 376 L 962 338 L 1032 376 Z" fill="#101219" opacity="0.6000000000000001"/>
      <rect x="938" y="374" width="64" height="42" fill="#101219" opacity="0.43200000000000005"/><path d="M 1040 376 L 1092 330 L 1162 376 Z" fill="#101219" opacity="0.6000000000000001"/>
      <rect x="1068" y="374" width="64" height="42" fill="#101219" opacity="0.43200000000000005"/><path d="M 1170 376 L 1222 346 L 1292 376 Z" fill="#101219" opacity="0.6000000000000001"/>
      <rect x="1198" y="374" width="64" height="42" fill="#101219" opacity="0.43200000000000005"/><path d="M 1300 376 L 1352 338 L 1422 376 Z" fill="#101219" opacity="0.6000000000000001"/>
      <rect x="1328" y="374" width="64" height="42" fill="#101219" opacity="0.43200000000000005"/><path d="M 1430 376 L 1482 330 L 1552 376 Z" fill="#101219" opacity="0.6000000000000001"/>
      <rect x="1458" y="374" width="64" height="42" fill="#101219" opacity="0.43200000000000005"/><path d="M 1560 376 L 1612 346 L 1682 376 Z" fill="#101219" opacity="0.6000000000000001"/>
      <rect x="1588" y="374" width="64" height="42" fill="#101219" opacity="0.43200000000000005"/><path d="M 1690 376 L 1742 338 L 1812 376 Z" fill="#101219" opacity="0.6000000000000001"/>
      <rect x="1718" y="374" width="64" height="42" fill="#101219" opacity="0.43200000000000005"/><path d="M 1820 376 L 1872 330 L 1942 376 Z" fill="#101219" opacity="0.6000000000000001"/>
      <rect x="1848" y="374" width="64" height="42" fill="#101219" opacity="0.43200000000000005"/><path d="M 1950 376 L 2002 346 L 2072 376 Z" fill="#101219" opacity="0.6000000000000001"/>
      <rect x="1978" y="374" width="64" height="42" fill="#101219" opacity="0.43200000000000005"/></g>
      <g transform="translate(500 150)">
    <path d="M 8 2
    C 32 -4, 62 4, 84 2
    L 90 130
    C 50 143, 40 136, 7 139
    L 2 8 Z"
    fill="#0A0C12" stroke="#00E5FF" stroke-width="3" opacity="0.96"/>
    <rect x="9" y="8" width="74" height="122" fill="none" stroke="#00E5FF" stroke-width="2" opacity="0.85" filter="url(#softGlow)"/>
    <path d="M 31.28 38.64 L 58.88 38.64 L 47.84 99.36 L 25.76 99.36 Z"
      fill="none" stroke="#00E5FF" stroke-width="4" opacity="0.78"/>
    <text x="46" y="128" text-anchor="middle" font-family="Arial, sans-serif" font-size="10" fill="#E8DDC6" opacity="0.72">near-</text>
  </g><g transform="translate(1100 200)">
    <path d="M 8 2
    C 32 -4, 82 4, 104 2
    L 110 62
    C 70 75, 40 68, 7 71
    L 2 8 Z"
    fill="#0A0C12" stroke="#F0A64A" stroke-width="3" opacity="0.96"/>
    <rect x="9" y="8" width="94" height="54" fill="none" stroke="#F0A64A" stroke-width="2" opacity="0.85" filter="url(#softGlow)"/>
    <path d="M 38.080000000000005 19.6 L 71.68 19.6 L 58.24 50.4 L 31.360000000000003 50.4 Z"
      fill="none" stroke="#F0A64A" stroke-width="4" opacity="0.78"/>
    <text x="56" y="60" text-anchor="middle" font-family="Arial, sans-serif" font-size="10" fill="#E8DDC6" opacity="0.72">safe</text>
  </g>
      
      <path d="M 0 420 C 180 390, 400 430, 600 404 C 860 376, 1120 438, 1920 396" fill="none" stroke="#050508" stroke-width="26" opacity="0.8"/>
</svg>