<svg xmlns="http://www.w3.org/2000/svg" width="1920" height="540" viewBox="0 0 1920 540">
  <defs>
    <filter id="softGlow" x="-50%" y="-50%" width="200%" height="200%">
      <feGaussianBlur stdDeviation="4" result="blur"/>
      <feMerge><feMergeNode in="blur"/><feMergeNode in="SourceGraphic"/></feMerge>
    </filter>
    <filter id="paperNoise" x="0" y="0" width="100%" height="100%">
      <feTurbulence type="fractalNoise" baseFrequency="0.032" numOctaves="3" seed="17"/>
      <feColorMatrix type="saturate" values="0"/>
      <feComponentTransfer>
        <feFuncA type="table" tableValues="0 0.11"/>
      </feComponentTransfer>
    </filter>
    <pattern id="rain" width="34" height="40" patternUnits="userSpaceOnUse" patternTransform="rotate(14)">
      <line x1="10" y1="0" x2="10" y2="18" stroke="#B9CBE0" stroke-width="1" opacity="0.22"/>
      <line x1="24" y1="6" x2="24" y2="32" stroke="#00E5FF" stroke-width="0.8" opacity="0.12"/>
    </pattern>
    
  </defs>
  <rect width="1920" height="540" fill="transparent"/><g><path d="M -30 352 L 22 322 L 92 352 Z" fill="#181B20" opacity="0.5"/>
      <rect x="-2" y="350" width="64" height="42" fill="#181B20" opacity="0.36"/><path d="M 100 352 L 152 314 L 222 352 Z" fill="#181B20" opacity="0.5"/>
      <rect x="128" y="350" width="64" height="42" fill="#181B20" opacity="0.36"/><path d="M 230 352 L 282 306 L 352 352 Z" fill="#181B20" opacity="0.5"/>
      <rect x="258" y="350" width="64" height="42" fill="#181B20" opacity="0.36"/><path d="M 360 352 L 412 322 L 482 352 Z" fill="#181B20" opacity="0.5"/>
      <rect x="388" y="350" width="64" height="42" fill="#181B20" opacity="0.36"/><path d="M 490 352 L 542 314 L 612 352 Z" fill="#181B20" opacity="0.5"/>
      <rect x="518" y="350" width="64" height="42" fill="#181B20" opacity="0.36"/><path d="M 620 352 L 672 306 L 742 352 Z" fill="#181B20" opacity="0.5"/>
      <rect x="648" y="350" width="64" height="42" fill="#181B20" opacity="0.36"/><path d="M 750 352 L 802 322 L 872 352 Z" fill="#181B20" opacity="0.5"/>
      <rect x="778" y="350" width="64" height="42" fill="#181B20" opacity="0.36"/><path d="M 880 352 L 932 314 L 1002 352 Z" fill="#181B20" opacity="0.5"/>
      <rect x="908" y="350" width="64" height="42" fill="#181B20" opacity="0.36"/><path d="M 1010 352 L 1062 306 L 1132 352 Z" fill="#181B20" opacity="0.5"/>
      <rect x="1038" y="350" width="64" height="42" fill="#181B20" opacity="0.36"/><path d="M 1140 352 L 1192 322 L 1262 352 Z" fill="#181B20" opacity="0.5"/>
      <rect x="1168" y="350" width="64" height="42" fill="#181B20" opacity="0.36"/><path d="M 1270 352 L 1322 314 L 1392 352 Z" fill="#181B20" opacity="0.5"/>
      <rect x="1298" y="350" width="64" height="42" fill="#181B20" opacity="0.36"/><path d="M 1400 352 L 1452 306 L 1522 352 Z" fill="#181B20" opacity="0.5"/>
      <rect x="1428" y="350" width="64" height="42" fill="#181B20" opacity="0.36"/><path d="M 1530 352 L 1582 322 L 1652 352 Z" fill="#181B20" opacity="0.5"/>
      <rect x="1558" y="350" width="64" height="42" fill="#181B20" opacity="0.36"/><path d="M 1660 352 L 1712 314 L 1782 352 Z" fill="#181B20" opacity="0.5"/>
      <rect x="1688" y="350" width="64" height="42" fill="#181B20" opacity="0.36"/><path d="M 1790 352 L 1842 306 L 1912 352 Z" fill="#181B20" opacity="0.5"/>
      <rect x="1818" y="350" width="64" height="42" fill="#181B20" opacity="0.36"/><path d="M 1920 352 L 1972 322 L 2042 352 Z" fill="#181B20" opacity="0.5"/>
      <rect x="1948" y="350" width="64" height="42" fill="#181B20" opacity="0.36"/></g>
      <g transform="translate(460 150)">
    <path d="M 8 2
    C 32 -4, 62 4, 84 2
    L 90 130
    C 50 143, 40 136, 7 139
    L 2 8 Z"
    fill="#0A0C12" stroke="#FF2E7A" stroke-width="3" opacity="0.96"/>
    <rect x="9" y="8" width="74" height="122" fill="none" stroke="#FF2E7A" stroke-width="2" opacity="0.85" filter="url(#softGlow)"/>
    <path d="M 31.28 38.64 L 58.88 38.64 L 47.84 99.36 L 25.76 99.36 Z"
      fill="none" stroke="#FF2E7A" stroke-width="4" opacity="0.78"/>
    <text x="46" y="128" text-anchor="middle" font-family="Arial, sans-serif" font-size="10" fill="#E8DDC6" opacity="0.72">gamep</text>
  </g><g transform="translate(1130 200)">
    <path d="M 8 2
    C 32 -4, 82 4, 104 2
    L 110 62
    C 70 75, 40 68, 7 71
    L 2 8 Z"
    fill="#0A0C12" stroke="#F0A64A" stroke-width="3" opacity="0.96"/>
    <rect x="9" y="8" width="94" height="54" fill="none" stroke="#F0A64A" stroke-width="2" opacity="0.85" filter="url(#softGlow)"/>
    <path d="M 38.080000000000005 19.6 L 71.68 19.6 L 58.24 50.4 L 31.360000000000003 50.4 Z"
      fill="none" stroke="#F0A64A" stroke-width="4" opacity="0.78"/>
    <text x="56" y="60" text-anchor="middle" font-family="Arial, sans-serif" font-size="10" fill="#E8DDC6" opacity="0.72">safe</text>
  </g>
      <path d="M 0 384 C 240 372, 520 402, 760 386 C 1100 372, 1380 394, 1920 374 L 1920 540 L 0 540 Z" fill="#15171A"/>
      
</svg>