<svg xmlns="http://www.w3.org/2000/svg" width="960" height="540" viewBox="0 0 960 540">
  <defs>
    <filter id="softGlow" x="-50%" y="-50%" width="200%" height="200%">
      <feGaussianBlur stdDeviation="4" result="blur"/>
      <feMerge><feMergeNode in="blur"/><feMergeNode in="SourceGraphic"/></feMerge>
    </filter>
    <filter id="paperNoise" x="0" y="0" width="100%" height="100%">
      <feTurbulence type="fractalNoise" baseFrequency="0.032" numOctaves="3" seed="17"/>
      <feColorMatrix type="saturate" values="0"/>
      <feComponentTransfer>
        <feFuncA type="table" tableValues="0 0.11"/>
      </feComponentTransfer>
    </filter>
    <pattern id="rain" width="34" height="40" patternUnits="userSpaceOnUse" patternTransform="rotate(14)">
      <line x1="10" y1="0" x2="10" y2="18" stroke="#B9CBE0" stroke-width="1" opacity="0.22"/>
      <line x1="24" y1="6" x2="24" y2="32" stroke="#00E5FF" stroke-width="0.8" opacity="0.12"/>
    </pattern>
    
  </defs>
  <rect width="960" height="540" fill="#0B1020"/>
  <radialGradient id="skyGlow" cx="46%" cy="20%" r="70%">
    <stop offset="0%" stop-color="#00E5FF" stop-opacity="0.20"/>
    <stop offset="42%" stop-color="#162435" stop-opacity="0.40"/>
    <stop offset="100%" stop-color="#050508" stop-opacity="1"/>
  </radialGradient>
  <rect width="960" height="540" fill="url(#skyGlow)"/>
  <rect width="960" height="540" fill="url(#rain)" opacity="0.34"/>
  <rect width="960" height="540" filter="url(#paperNoise)" opacity="0.38"/><text x="34" y="58" font-family="Arial Black, Arial, sans-serif" font-size="32" fill="#E8DDC6">Player Five Core Poses</text><g transform="translate(150 350) scale(1.2)">
    <path d="M -70 -50 C -58 -62, -42 -43, -18 -36 C -36 -31, -56 -25, -70 -16 C -44 -18, -30 -11, -12 -20 L 0 -32 Z"
      fill="#FF2E7A" opacity="0.92"/>
    <ellipse cx="0" cy="-54" rx="15" ry="18" fill="#050508" stroke="#7B838D" stroke-width="2"/>
    <circle cx="8" cy="-57" r="3.8" fill="#00E5FF" filter="url(#softGlow)"/>
    <path d="M -14 -42 C -24 -18, -18 6, -7 30 L 18 30 C 24 4, 18 -22, 8 -42 Z"
      fill="#050508" stroke="#7B838D" stroke-width="2"/>
    <path d="M -9 -18 L -28 14 L -17 18 L -1 -10 Z" fill="#050508" stroke="#7B838D" stroke-width="1.5"/>
    <path d="M 10 -14 L 34 6 L 28 13 L 6 0 Z" fill="#050508" stroke="#7B838D" stroke-width="1.5"/>
    <path d="M -9 28 L -22 66 L -6 66 L 4 30 Z" fill="#050508" stroke="#7B838D" stroke-width="1.5"/>
    <path d="M 12 29 L 23 66 L 38 66 L 24 29 Z" fill="#050508" stroke="#7B838D" stroke-width="1.5"/>
    <rect x="18" y="-6" width="18" height="24" rx="3" fill="#050508" stroke="#00E5FF" stroke-width="2"/>
    <path d="M 22 5 l5 -6 l6 6 l-6 6 Z" fill="none" stroke="#00E5FF" stroke-width="2"/>
  </g><g transform="translate(315 350) scale(1.15)">
    <path d="M -96 -50 C -58 -62, -42 -43, -18 -36 C -36 -31, -56 -25, -96 -16 C -44 -18, -30 -11, -12 -20 L 0 -32 Z"
      fill="#FF2E7A" opacity="0.92"/>
    <ellipse cx="10" cy="-54" rx="15" ry="18" fill="#050508" stroke="#7B838D" stroke-width="2"/>
    <circle cx="18" cy="-57" r="3.8" fill="#00E5FF" filter="url(#softGlow)"/>
    <path d="M -4 -42 C -14 -18, -8 6, 3 30 L 28 30 C 34 4, 28 -22, 18 -42 Z"
      fill="#050508" stroke="#7B838D" stroke-width="2"/>
    <path d="M 1 -18 L -18 14 L -7 18 L 9 -10 Z" fill="#050508" stroke="#7B838D" stroke-width="1.5"/>
    <path d="M 20 -14 L 44 6 L 38 13 L 16 0 Z" fill="#050508" stroke="#7B838D" stroke-width="1.5"/>
    <path d="M 1 28 L -12 66 L 4 66 L 14 30 Z" fill="#050508" stroke="#7B838D" stroke-width="1.5"/>
    <path d="M 22 29 L 33 66 L 48 66 L 34 29 Z" fill="#050508" stroke="#7B838D" stroke-width="1.5"/>
    <rect x="28" y="-6" width="18" height="24" rx="3" fill="#050508" stroke="#00E5FF" stroke-width="2"/>
    <path d="M 32 5 l5 -6 l6 6 l-6 6 Z" fill="none" stroke="#00E5FF" stroke-width="2"/>
  </g><g transform="translate(476 340) scale(1.1)">
    <path d="M -82 -50 C -58 -62, -42 -43, -18 -36 C -36 -31, -56 -25, -82 -16 C -44 -18, -30 -11, -12 -20 L 0 -32 Z"
      fill="#FF2E7A" opacity="0.92"/>
    <ellipse cx="0" cy="-54" rx="15" ry="18" fill="#050508" stroke="#7B838D" stroke-width="2"/>
    <circle cx="8" cy="-57" r="3.8" fill="#00E5FF" filter="url(#softGlow)"/>
    <path d="M -14 -42 C -24 -18, -18 6, -7 30 L 18 30 C 24 4, 18 -22, 8 -42 Z"
      fill="#050508" stroke="#7B838D" stroke-width="2"/>
    <path d="M -9 -18 L -28 14 L -17 18 L -1 -10 Z" fill="#050508" stroke="#7B838D" stroke-width="1.5"/>
    <path d="M 10 -14 L 34 6 L 28 13 L 6 0 Z" fill="#050508" stroke="#7B838D" stroke-width="1.5"/>
    <path d="M -9 28 L -22 66 L -6 66 L 4 30 Z" fill="#050508" stroke="#7B838D" stroke-width="1.5"/>
    <path d="M 12 29 L 23 66 L 38 66 L 24 29 Z" fill="#050508" stroke="#7B838D" stroke-width="1.5"/>
    <rect x="18" y="-6" width="18" height="24" rx="3" fill="#050508" stroke="#00E5FF" stroke-width="2"/>
    <path d="M 22 5 l5 -6 l6 6 l-6 6 Z" fill="none" stroke="#00E5FF" stroke-width="2"/>
  </g><g transform="translate(636 350) scale(1.1)">
    <path d="M -70 -50 C -58 -62, -42 -43, -18 -36 C -36 -31, -56 -25, -70 -16 C -44 -18, -30 -11, -12 -20 L 0 -32 Z"
      fill="#FF2E7A" opacity="0.92"/>
    <ellipse cx="-8" cy="-54" rx="15" ry="18" fill="#050508" stroke="#7B838D" stroke-width="2"/>
    <circle cx="0" cy="-57" r="3.8" fill="#00E5FF" filter="url(#softGlow)"/>
    <path d="M -22 -42 C -32 -18, -26 6, -15 30 L 10 30 C 16 4, 10 -22, 0 -42 Z"
      fill="#050508" stroke="#7B838D" stroke-width="2"/>
    <path d="M -17 -18 L -36 14 L -25 18 L -9 -10 Z" fill="#050508" stroke="#7B838D" stroke-width="1.5"/>
    <path d="M 2 -14 L 26 6 L 20 13 L -2 0 Z" fill="#050508" stroke="#7B838D" stroke-width="1.5"/>
    <path d="M -17 28 L -30 66 L -14 66 L -4 30 Z" fill="#050508" stroke="#7B838D" stroke-width="1.5"/>
    <path d="M 4 29 L 15 66 L 30 66 L 16 29 Z" fill="#050508" stroke="#7B838D" stroke-width="1.5"/>
    <rect x="10" y="-6" width="18" height="24" rx="3" fill="#050508" stroke="#00E5FF" stroke-width="2"/>
    <path d="M 14 5 l5 -6 l6 6 l-6 6 Z" fill="none" stroke="#00E5FF" stroke-width="2"/>
  </g><g transform="translate(780 350) scale(1)">
    <path d="M -110 -50 C -58 -62, -42 -43, -18 -36 C -36 -31, -56 -25, -110 -16 C -44 -18, -30 -11, -12 -20 L 0 -32 Z"
      fill="#FF2E7A" opacity="0.92"/>
    <ellipse cx="10" cy="-54" rx="15" ry="18" fill="#050508" stroke="#7B838D" stroke-width="2"/>
    <circle cx="18" cy="-57" r="3.8" fill="#00E5FF" filter="url(#softGlow)"/>
    <path d="M -4 -42 C -14 -18, -8 6, 3 30 L 28 30 C 34 4, 28 -22, 18 -42 Z"
      fill="#050508" stroke="#7B838D" stroke-width="2"/>
    <path d="M 1 -18 L -18 14 L -7 18 L 9 -10 Z" fill="#050508" stroke="#7B838D" stroke-width="1.5"/>
    <path d="M 20 -14 L 44 6 L 38 13 L 16 0 Z" fill="#050508" stroke="#7B838D" stroke-width="1.5"/>
    <path d="M 1 28 L -12 66 L 4 66 L 14 30 Z" fill="#050508" stroke="#7B838D" stroke-width="1.5"/>
    <path d="M 22 29 L 33 66 L 48 66 L 34 29 Z" fill="#050508" stroke="#7B838D" stroke-width="1.5"/>
    <rect x="28" y="-6" width="18" height="24" rx="3" fill="#050508" stroke="#00E5FF" stroke-width="2"/>
    <path d="M 32 5 l5 -6 l6 6 l-6 6 Z" fill="none" stroke="#00E5FF" stroke-width="2"/>
  </g><g transform="translate(778 306) scale(0.5)" opacity="0.95">
    <path d="M -10 32 C 46 -42, 142 -48, 202 -8 C 128 -22, 72 6, 14 58 Z" fill="#050508" opacity="0.95"/>
    <path d="M 9 25 C 58 -24, 126 -29, 182 -5 C 116 -7, 70 13, 21 48 Z" fill="#FF2E7A" filter="url(#softGlow)"/>
    <path d="M 122 -18 l12 -10 l-3 14 l14 4 l-15 3 l-6 14 l-4 -14 l-16 -3 Z" fill="#00E5FF"/>
    <path d="M 154 17 l10 -6 l-3 10 l9 4 l-11 1 l-5 9 l-2 -10 l-10 -4 Z" fill="#FF2E7A"/>
  </g>
</svg>