<svg xmlns="http://www.w3.org/2000/svg" width="960" height="540" viewBox="0 0 960 540">
  <defs>
    <filter id="softGlow" x="-50%" y="-50%" width="200%" height="200%">
      <feGaussianBlur stdDeviation="4" result="blur"/>
      <feMerge><feMergeNode in="blur"/><feMergeNode in="SourceGraphic"/></feMerge>
    </filter>
    <filter id="paperNoise" x="0" y="0" width="100%" height="100%">
      <feTurbulence type="fractalNoise" baseFrequency="0.032" numOctaves="3" seed="17"/>
      <feColorMatrix type="saturate" values="0"/>
      <feComponentTransfer>
        <feFuncA type="table" tableValues="0 0.11"/>
      </feComponentTransfer>
    </filter>
    <pattern id="rain" width="34" height="40" patternUnits="userSpaceOnUse" patternTransform="rotate(14)">
      <line x1="10" y1="0" x2="10" y2="18" stroke="#B9CBE0" stroke-width="1" opacity="0.22"/>
      <line x1="24" y1="6" x2="24" y2="32" stroke="#00E5FF" stroke-width="0.8" opacity="0.12"/>
    </pattern>
    
  </defs>
  <rect width="960" height="540" fill="#0B1020"/>
  <radialGradient id="skyGlow" cx="46%" cy="20%" r="70%">
    <stop offset="0%" stop-color="#00E5FF" stop-opacity="0.20"/>
    <stop offset="42%" stop-color="#162435" stop-opacity="0.40"/>
    <stop offset="100%" stop-color="#050508" stop-opacity="1"/>
  </radialGradient>
  <rect width="960" height="540" fill="url(#skyGlow)"/>
  <rect width="960" height="540" fill="url(#rain)" opacity="0.34"/>
  <rect width="960" height="540" filter="url(#paperNoise)" opacity="0.38"/><text x="34" y="58" font-family="Arial Black, Arial, sans-serif" font-size="32" fill="#E8DDC6">Player Contrast Test</text><rect x="44" y="116" width="148" height="286" fill="#F3F0E8"/><g transform="translate(118 326) scale(0.9)">
    <path d="M -70 -50 C -58 -62, -42 -43, -18 -36 C -36 -31, -56 -25, -70 -16 C -44 -18, -30 -11, -12 -20 L 0 -32 Z"
      fill="#FF2E7A" opacity="0.92"/>
    <ellipse cx="0" cy="-54" rx="15" ry="18" fill="#050508" stroke="#7B838D" stroke-width="2"/>
    <circle cx="8" cy="-57" r="3.8" fill="#00E5FF" filter="url(#softGlow)"/>
    <path d="M -14 -42 C -24 -18, -18 6, -7 30 L 18 30 C 24 4, 18 -22, 8 -42 Z"
      fill="#050508" stroke="#7B838D" stroke-width="2"/>
    <path d="M -9 -18 L -28 14 L -17 18 L -1 -10 Z" fill="#050508" stroke="#7B838D" stroke-width="1.5"/>
    <path d="M 10 -14 L 34 6 L 28 13 L 6 0 Z" fill="#050508" stroke="#7B838D" stroke-width="1.5"/>
    <path d="M -9 28 L -22 66 L -6 66 L 4 30 Z" fill="#050508" stroke="#7B838D" stroke-width="1.5"/>
    <path d="M 12 29 L 23 66 L 38 66 L 24 29 Z" fill="#050508" stroke="#7B838D" stroke-width="1.5"/>
    <rect x="18" y="-6" width="18" height="24" rx="3" fill="#050508" stroke="#00E5FF" stroke-width="2"/>
    <path d="M 22 5 l5 -6 l6 6 l-6 6 Z" fill="none" stroke="#00E5FF" stroke-width="2"/>
  </g><rect x="220" y="116" width="148" height="286" fill="#B7BBC0"/><g transform="translate(294 326) scale(0.9)">
    <path d="M -96 -50 C -58 -62, -42 -43, -18 -36 C -36 -31, -56 -25, -96 -16 C -44 -18, -30 -11, -12 -20 L 0 -32 Z"
      fill="#FF2E7A" opacity="0.92"/>
    <ellipse cx="10" cy="-54" rx="15" ry="18" fill="#050508" stroke="#7B838D" stroke-width="2"/>
    <circle cx="18" cy="-57" r="3.8" fill="#00E5FF" filter="url(#softGlow)"/>
    <path d="M -4 -42 C -14 -18, -8 6, 3 30 L 28 30 C 34 4, 28 -22, 18 -42 Z"
      fill="#050508" stroke="#7B838D" stroke-width="2"/>
    <path d="M 1 -18 L -18 14 L -7 18 L 9 -10 Z" fill="#050508" stroke="#7B838D" stroke-width="1.5"/>
    <path d="M 20 -14 L 44 6 L 38 13 L 16 0 Z" fill="#050508" stroke="#7B838D" stroke-width="1.5"/>
    <path d="M 1 28 L -12 66 L 4 66 L 14 30 Z" fill="#050508" stroke="#7B838D" stroke-width="1.5"/>
    <path d="M 22 29 L 33 66 L 48 66 L 34 29 Z" fill="#050508" stroke="#7B838D" stroke-width="1.5"/>
    <rect x="28" y="-6" width="18" height="24" rx="3" fill="#050508" stroke="#00E5FF" stroke-width="2"/>
    <path d="M 32 5 l5 -6 l6 6 l-6 6 Z" fill="none" stroke="#00E5FF" stroke-width="2"/>
  </g><rect x="396" y="116" width="148" height="286" fill="#343941"/><g transform="translate(470 326) scale(0.9)">
    <path d="M -70 -50 C -58 -62, -42 -43, -18 -36 C -36 -31, -56 -25, -70 -16 C -44 -18, -30 -11, -12 -20 L 0 -32 Z"
      fill="#FF2E7A" opacity="0.92"/>
    <ellipse cx="0" cy="-54" rx="15" ry="18" fill="#050508" stroke="#7B838D" stroke-width="2"/>
    <circle cx="8" cy="-57" r="3.8" fill="#00E5FF" filter="url(#softGlow)"/>
    <path d="M -14 -42 C -24 -18, -18 6, -7 30 L 18 30 C 24 4, 18 -22, 8 -42 Z"
      fill="#050508" stroke="#7B838D" stroke-width="2"/>
    <path d="M -9 -18 L -28 14 L -17 18 L -1 -10 Z" fill="#050508" stroke="#7B838D" stroke-width="1.5"/>
    <path d="M 10 -14 L 34 6 L 28 13 L 6 0 Z" fill="#050508" stroke="#7B838D" stroke-width="1.5"/>
    <path d="M -9 28 L -22 66 L -6 66 L 4 30 Z" fill="#050508" stroke="#7B838D" stroke-width="1.5"/>
    <path d="M 12 29 L 23 66 L 38 66 L 24 29 Z" fill="#050508" stroke="#7B838D" stroke-width="1.5"/>
    <rect x="18" y="-6" width="18" height="24" rx="3" fill="#050508" stroke="#00E5FF" stroke-width="2"/>
    <path d="M 22 5 l5 -6 l6 6 l-6 6 Z" fill="none" stroke="#00E5FF" stroke-width="2"/>
  </g><rect x="572" y="116" width="148" height="286" fill="#162435"/><g transform="translate(646 326) scale(0.9)">
    <path d="M -96 -50 C -58 -62, -42 -43, -18 -36 C -36 -31, -56 -25, -96 -16 C -44 -18, -30 -11, -12 -20 L 0 -32 Z"
      fill="#FF2E7A" opacity="0.92"/>
    <ellipse cx="10" cy="-54" rx="15" ry="18" fill="#050508" stroke="#7B838D" stroke-width="2"/>
    <circle cx="18" cy="-57" r="3.8" fill="#00E5FF" filter="url(#softGlow)"/>
    <path d="M -4 -42 C -14 -18, -8 6, 3 30 L 28 30 C 34 4, 28 -22, 18 -42 Z"
      fill="#050508" stroke="#7B838D" stroke-width="2"/>
    <path d="M 1 -18 L -18 14 L -7 18 L 9 -10 Z" fill="#050508" stroke="#7B838D" stroke-width="1.5"/>
    <path d="M 20 -14 L 44 6 L 38 13 L 16 0 Z" fill="#050508" stroke="#7B838D" stroke-width="1.5"/>
    <path d="M 1 28 L -12 66 L 4 66 L 14 30 Z" fill="#050508" stroke="#7B838D" stroke-width="1.5"/>
    <path d="M 22 29 L 33 66 L 48 66 L 34 29 Z" fill="#050508" stroke="#7B838D" stroke-width="1.5"/>
    <rect x="28" y="-6" width="18" height="24" rx="3" fill="#050508" stroke="#00E5FF" stroke-width="2"/>
    <path d="M 32 5 l5 -6 l6 6 l-6 6 Z" fill="none" stroke="#00E5FF" stroke-width="2"/>
  </g><rect x="748" y="116" width="148" height="286" fill="#020203"/><g transform="translate(822 326) scale(0.9)">
    <path d="M -70 -50 C -58 -62, -42 -43, -18 -36 C -36 -31, -56 -25, -70 -16 C -44 -18, -30 -11, -12 -20 L 0 -32 Z"
      fill="#FF2E7A" opacity="0.92"/>
    <ellipse cx="0" cy="-54" rx="15" ry="18" fill="#050508" stroke="#7B838D" stroke-width="2"/>
    <circle cx="8" cy="-57" r="3.8" fill="#00E5FF" filter="url(#softGlow)"/>
    <path d="M -14 -42 C -24 -18, -18 6, -7 30 L 18 30 C 24 4, 18 -22, 8 -42 Z"
      fill="#050508" stroke="#7B838D" stroke-width="2"/>
    <path d="M -9 -18 L -28 14 L -17 18 L -1 -10 Z" fill="#050508" stroke="#7B838D" stroke-width="1.5"/>
    <path d="M 10 -14 L 34 6 L 28 13 L 6 0 Z" fill="#050508" stroke="#7B838D" stroke-width="1.5"/>
    <path d="M -9 28 L -22 66 L -6 66 L 4 30 Z" fill="#050508" stroke="#7B838D" stroke-width="1.5"/>
    <path d="M 12 29 L 23 66 L 38 66 L 24 29 Z" fill="#050508" stroke="#7B838D" stroke-width="1.5"/>
    <rect x="18" y="-6" width="18" height="24" rx="3" fill="#050508" stroke="#00E5FF" stroke-width="2"/>
    <path d="M 22 5 l5 -6 l6 6 l-6 6 Z" fill="none" stroke="#00E5FF" stroke-width="2"/>
  </g>
</svg>